<svg id="glipy_copy_3" viewBox="0 0 64 64" xmlns="http://www.w3.org/2000/svg" data-name="glipy copy 3"><path d="m32 2a30 30 0 1 0 30 30 30.03661 30.03661 0 0 0 -30-30zm9.24 19.75 3.89-3.89a.71428.71428 0 0 1 1.01 1.01l-3.89 3.89a.72787.72787 0 0 1 -.51.21.71685.71685 0 0 1 -.5-1.22zm-9.95-9.04a.71.71 0 0 1 1.42 0v5.51a.71009.71009 0 1 1 -1.42 0zm-12.42 5.15 3.89 3.89a.71591.71591 0 0 1 -.5 1.22.72787.72787 0 0 1 -.51-.21l-3.89-3.89a.71428.71428 0 0 1 1.01-1.01zm-6.16 13.43h5.51a.71.71 0 0 1 0 1.42h-5.51a.7101.7101 0 0 1 0-1.42zm10.05 10.96-3.89 3.89a.71419.71419 0 1 1 -1.01-1.01l3.89-3.89a.71424.71424 0 0 1 1.01 1.01zm8.53-21.96v23.42c-14.63-1.37-14.62-22.06 0-23.42zm1.42 31a.71.71 0 0 1 -1.42 0v-5.51a.71009.71009 0 1 1 1.42 0zm4.29-8.68a11.42254 11.42254 0 0 1 -4.29 1.1v-23.42a11.42372 11.42372 0 0 1 4.29 1.1zm1.43-.8v-19.62a11.71678 11.71678 0 0 1 0 19.62zm7.21 4.54a.71084.71084 0 0 1 -.51-.21l-3.89-3.89a.71424.71424 0 0 1 1.01-1.01l3.89 3.89a.71685.71685 0 0 1 -.5 1.22zm5.65-13.64h-5.51a.71.71 0 0 1 0-1.42h5.51a.7101.7101 0 0 1 0 1.42z"/></svg>