<svg id="glipy_copy_2" viewBox="0 0 64 64" xmlns="http://www.w3.org/2000/svg" data-name="glipy copy 2"><path d="m32 18.93848a.71413.71413 0 0 0 .71429-.7143v-5.50989a.71429.71429 0 1 0 -1.42858 0v5.50989a.71413.71413 0 0 0 .71429.7143z"/><path d="m21.75409 22.76447a.71421.71421 0 1 0 1.01007-1.01l-3.89616-3.89647a.71432.71432 0 0 0 -1.01 1.01z"/><path d="m18.22455 31.28571h-5.51019a.71443.71443 0 0 0 -.00007 1.42858h5.51026a.71443.71443 0 0 0 0-1.42858z"/><path d="m21.75409 41.23547-3.89609 3.89653a.71421.71421 0 1 0 1.01 1.01007l3.89606-3.89649a.71434.71434 0 0 0 -1.00997-1.01011z"/><path d="m32 45.06152a.71409.71409 0 0 0 -.71429.7143v5.50989a.71429.71429 0 0 0 1.42858 0v-5.50989a.71409.71409 0 0 0 -.71429-.7143z"/><path d="m42.24591 41.23553a.71434.71434 0 0 0 -1.01007 1.01l3.89616 3.89647a.71423.71423 0 1 0 1.01-1.01z"/><path d="m51.28571 31.28571h-5.5102a.71443.71443 0 0 0 -.00006 1.42858h5.51026a.71443.71443 0 0 0 0-1.42858z"/><path d="m41.74084 22.97375a.712.712 0 0 0 .50507-.20928l3.89609-3.89647a.71432.71432 0 0 0 -1.01-1.01l-3.8961 3.89646a.719.719 0 0 0 .50494 1.21929z"/><path d="m31.28571 20.28571c-14.612 1.36657-14.62085 22.05743 0 23.42852z"/><path d="m32.71429 43.71423a11.64926 11.64926 0 0 0 4.28571-1.09997v-21.22858a11.64809 11.64809 0 0 0 -4.28571-1.1z"/><path d="m38.42859 22.18573v19.62854a11.72814 11.72814 0 0 0 0-19.62854z"/><path d="m32 2a30 30 0 1 0 30 30 30.034 30.034 0 0 0 -30-30zm0 58.38965a28.38965 28.38965 0 1 1 28.38965-28.38965 28.42226 28.42226 0 0 1 -28.38965 28.38965z"/></svg>